<svg width="97" height="103" viewBox="0 0 97 103" fill="none" xmlns="http://www.w3.org/2000/svg">
<ellipse cx="48.4874" cy="51.5244" rx="48.0663" ry="51.2885" fill="#EEEEEE"/>
<g clip-path="url(#clip0_3204_600)">
<path d="M30.0421 40.916H30.7108C33.2853 40.916 35.3917 43.1636 35.3917 45.9105V70.8829C35.3917 73.6298 33.2853 75.8774 30.7108 75.8774H30.0421C27.4676 75.8774 25.3613 73.6298 25.3613 70.8829V45.9105C25.3613 43.1636 27.4676 40.916 30.0421 40.916ZM48.7655 25.9326C51.34 25.9326 53.4464 28.1801 53.4464 30.9271V70.8829C53.4464 73.6298 51.34 75.8774 48.7655 75.8774C46.191 75.8774 44.0847 73.6298 44.0847 70.8829V30.9271C44.0847 28.1801 46.191 25.9326 48.7655 25.9326ZM67.4889 54.4725C70.0634 54.4725 72.1698 56.72 72.1698 59.4669V70.8829C72.1698 73.6298 70.0634 75.8774 67.4889 75.8774C64.9144 75.8774 62.8081 73.6298 62.8081 70.8829V59.4669C62.8081 56.72 64.9144 54.4725 67.4889 54.4725Z" fill="#56408C"/>
</g>
<defs>
<clipPath id="clip0_3204_600">
<rect x="8.64435" y="8.09521" width="80.2431" height="85.6195" rx="15" fill="white"/>
</clipPath>
</defs>
</svg>
