<svg width="30" height="27" viewBox="0 0 30 27" fill="none" xmlns="http://www.w3.org/2000/svg">
<g clip-path="url(#clip0_3258_560)">
<path d="M14.6829 2.25C8.01288 2.25 2.59955 7.29 2.59955 13.5C2.59955 19.71 8.01288 24.75 14.6829 24.75C21.3529 24.75 26.7662 19.71 26.7662 13.5C26.7662 7.29 21.3529 2.25 14.6829 2.25ZM11.4083 18.3263L7.07038 14.2875C6.59913 13.8488 6.59913 13.14 7.07038 12.7013C7.54163 12.2625 8.30288 12.2625 8.77413 12.7013L12.2662 15.9412L20.5795 8.20125C21.0508 7.7625 21.812 7.7625 22.2833 8.20125C22.7546 8.64 22.7546 9.34875 22.2833 9.7875L13.112 18.3263C12.6529 18.765 11.8795 18.765 11.4083 18.3263Z" fill="#05CD99"/>
</g>
<defs>
<clipPath id="clip0_3258_560">
<rect width="29" height="27" fill="white" transform="translate(0.182861)"/>
</clipPath>
</defs>
</svg>
