<svg width="99" height="103" viewBox="0 0 99 103" fill="none" xmlns="http://www.w3.org/2000/svg">
<ellipse cx="49.6579" cy="51.5244" rx="49.2368" ry="51.2885" fill="#EEEEEE"/>
<g clip-path="url(#clip0_3204_573)">
<path d="M49.9164 49.5381C44.4541 48.0592 42.6975 46.5302 42.6975 44.149C42.6975 41.4168 45.1279 39.5119 49.1945 39.5119C52.6114 39.5119 54.3198 40.8654 54.9455 43.021C55.2342 44.0237 56.0283 44.7756 57.0389 44.7756H57.7608C59.349 44.7756 60.4799 43.1464 59.9265 41.5923C58.9158 38.6346 56.5577 36.1782 52.8039 35.2257V33.4962C52.8039 31.4157 51.1917 29.7363 49.1945 29.7363C47.1973 29.7363 45.5851 31.4157 45.5851 33.4962V35.1505C40.9169 36.2032 37.1631 39.3615 37.1631 44.1991C37.1631 49.9892 41.7591 52.8718 48.4726 54.5512C54.4883 56.0551 55.6914 58.2609 55.6914 60.592C55.6914 62.3215 54.5124 65.0787 49.1945 65.0787C45.2241 65.0787 43.1788 63.5998 42.3847 61.4943C42.0238 60.5168 41.2056 59.8149 40.2191 59.8149H39.5453C37.9331 59.8149 36.8021 61.5194 37.4037 63.0734C38.7753 66.5575 41.9756 68.6129 45.5851 69.415V71.0944C45.5851 73.1748 47.1973 74.8542 49.1945 74.8542C51.1917 74.8542 52.8039 73.1748 52.8039 71.0944V69.4651C57.4961 68.5377 61.2259 65.7053 61.2259 60.5669C61.2259 53.4483 55.3786 51.0169 49.9164 49.5381Z" fill="#56408C"/>
</g>
<defs>
<clipPath id="clip0_3204_573">
<rect x="21.5226" y="22.2168" width="57.7507" height="60.1572" rx="10" fill="white"/>
</clipPath>
</defs>
</svg>
