<svg width="86" height="85" viewBox="0 0 86 85" fill="none" xmlns="http://www.w3.org/2000/svg">
<ellipse cx="43.3167" cy="42.5903" rx="42.6833" ry="41.9467" fill="#EEEEEE"/>
<g clip-path="url(#clip0_3256_451)">
<path d="M17.33 53.9375C17.33 53.5231 17.5045 53.1257 17.8151 52.8326C18.1257 52.5396 18.547 52.375 18.9862 52.375H25.611C26.0502 52.375 26.4715 52.5396 26.7821 52.8326C27.0927 53.1257 27.2672 53.5231 27.2672 53.9375V60.1875C27.2672 60.6019 27.0927 60.9993 26.7821 61.2924C26.4715 61.5854 26.0502 61.75 25.611 61.75H18.9862C18.547 61.75 18.1257 61.5854 17.8151 61.2924C17.5045 60.9993 17.33 60.6019 17.33 60.1875V53.9375ZM30.5795 44.5625C30.5795 44.1481 30.754 43.7507 31.0646 43.4576C31.3752 43.1646 31.7965 43 32.2357 43H38.8605C39.2997 43 39.721 43.1646 40.0316 43.4576C40.3422 43.7507 40.5167 44.1481 40.5167 44.5625V60.1875C40.5167 60.6019 40.3422 60.9993 40.0316 61.2924C39.721 61.5854 39.2997 61.75 38.8605 61.75H32.2357C31.7965 61.75 31.3752 61.5854 31.0646 61.2924C30.754 60.9993 30.5795 60.6019 30.5795 60.1875V44.5625ZM43.8291 35.1875C43.8291 34.7731 44.0036 34.3757 44.3141 34.0826C44.6247 33.7896 45.046 33.625 45.4853 33.625H52.11C52.5493 33.625 52.9705 33.7896 53.2811 34.0826C53.5917 34.3757 53.7662 34.7731 53.7662 35.1875V60.1875C53.7662 60.6019 53.5917 60.9993 53.2811 61.2924C52.9705 61.5854 52.5493 61.75 52.11 61.75H45.4853C45.046 61.75 44.6247 61.5854 44.3141 61.2924C44.0036 60.9993 43.8291 60.6019 43.8291 60.1875V35.1875ZM57.0786 25.8125C57.0786 25.3981 57.2531 25.0007 57.5637 24.7076C57.8743 24.4146 58.2955 24.25 58.7348 24.25H65.3595C65.7988 24.25 66.22 24.4146 66.5306 24.7076C66.8412 25.0007 67.0157 25.3981 67.0157 25.8125V60.1875C67.0157 60.6019 66.8412 60.9993 66.5306 61.2924C66.22 61.5854 65.7988 61.75 65.3595 61.75H58.7348C58.2955 61.75 57.8743 61.5854 57.5637 61.2924C57.2531 60.9993 57.0786 60.6019 57.0786 60.1875V25.8125Z" fill="#56408C"/>
</g>
<defs>
<clipPath id="clip0_3256_451">
<rect width="52.9981" height="50" fill="white" transform="translate(17.33 18)"/>
</clipPath>
</defs>
</svg>
