<svg width="97" height="103" viewBox="0 0 97 103" fill="none" xmlns="http://www.w3.org/2000/svg">
<ellipse cx="48.6674" cy="51.5244" rx="48.2463" ry="51.2885" fill="#EEEEEE"/>
<g clip-path="url(#clip0_3204_589)">
<path d="M51.1533 24.4817C50.5272 24.4325 49.8995 24.4079 49.2717 24.4079V20.5239C49.9898 20.5243 50.7076 20.5528 51.4237 20.6094L51.1533 24.4817ZM58.4753 26.2295C57.3041 25.749 56.1012 25.3608 54.8764 25.0681L55.6766 21.2774C57.0796 21.6114 58.451 22.0542 59.7906 22.6057L58.4753 26.2295ZM63.4809 28.9871C62.9585 28.6167 62.4235 28.2669 61.8769 27.9384L63.6782 24.5594C64.9276 25.3115 66.1231 26.1605 67.2551 27.0995L65.0081 30.1639C64.5128 29.7531 64.0033 29.3619 63.4809 28.9909V28.9871ZM70.1817 35.9393C69.4589 34.8479 68.6615 33.8146 67.7959 32.8477L70.4411 30.1678C71.4301 31.2786 72.3398 32.4567 73.1705 33.7022L70.1817 35.9393ZM72.9001 41.1904C72.6605 40.5746 72.3997 39.9682 72.1182 39.3727L75.3809 37.625C76.0259 38.9887 76.5754 40.4011 77.0251 41.8507L73.5541 43.0664C73.3578 42.4327 73.1397 41.807 72.9001 41.1904ZM74.8365 50.9275C74.8069 49.5927 74.6847 48.2621 74.4712 46.9464L78.07 46.2862C78.3136 47.788 78.4549 49.3027 78.4939 50.8304L74.8365 50.9275ZM74.3579 56.901C74.4797 56.2433 74.5783 55.5831 74.6538 54.9202L78.282 55.3979C78.1059 56.9132 77.825 58.4125 77.4416 59.8839L73.9195 58.8469C74.0875 58.2073 74.2337 57.5587 74.3579 56.901ZM70.8796 66.1409C71.5519 65.012 72.1438 63.8365 72.6553 62.6143L75.9948 64.1873C75.4102 65.5855 74.7342 66.9294 73.967 68.2188L70.8796 66.1409ZM67.3574 70.8211C67.8032 70.3473 68.2294 69.8579 68.6362 69.353L71.4057 71.8892C70.9369 72.4674 70.4482 73.0271 69.9406 73.567L67.3574 70.8211Z" fill="#56408C"/>
<path d="M49.2718 24.4079C45.066 24.4082 40.9251 25.5111 37.216 27.6189C33.5069 29.7267 30.344 32.7743 28.0075 36.4918C25.6711 40.2093 24.2331 44.482 23.8209 48.9314C23.4088 53.3808 24.0352 57.8695 25.6448 62.0001C27.2543 66.1306 29.7973 69.7755 33.0484 72.6118C36.2996 75.4481 40.1585 77.3884 44.2836 78.2607C48.4086 79.133 52.6723 78.9105 56.6971 77.6128C60.7218 76.3151 64.3834 73.9823 67.3576 70.8211L69.9407 73.567C66.5418 77.1821 62.3566 79.8502 57.7558 81.3349C53.1551 82.8196 48.2808 83.0751 43.565 82.0787C38.8491 81.0822 34.4373 78.8647 30.7204 75.6225C27.0035 72.3804 24.0962 68.2137 22.2562 63.4916C20.4162 58.7696 19.7003 53.638 20.1718 48.5516C20.6434 43.4651 22.2879 38.5808 24.9597 34.3314C27.6314 30.0821 31.2479 26.5989 35.4887 24.1904C39.7295 21.7819 44.4637 20.5226 49.2718 20.5239V24.4079Z" fill="#56408C"/>
<path d="M47.4448 32.1758C47.9293 32.1758 48.394 32.3804 48.7366 32.7446C49.0792 33.1088 49.2717 33.6027 49.2717 34.1178V54.3531L61.1389 61.5618C61.5473 61.8237 61.8432 62.2451 61.9632 62.7358C62.0833 63.2266 62.018 63.7478 61.7813 64.1881C61.5447 64.6284 61.1554 64.9528 60.6967 65.092C60.238 65.2312 59.7463 65.1741 59.3266 64.933L46.5387 57.1651C46.2591 56.9953 46.0267 56.75 45.865 56.454C45.7033 56.158 45.6181 55.8218 45.618 55.4795V34.1178C45.618 33.6027 45.8105 33.1088 46.1531 32.7446C46.4957 32.3804 46.9603 32.1758 47.4448 32.1758Z" fill="#56408C"/>
</g>
<defs>
<clipPath id="clip0_3204_589">
<rect x="20.0421" y="20.5239" width="58.459" height="62.1432" rx="15" fill="white"/>
</clipPath>
</defs>
</svg>
